<?xml version="1.0" standalone="no"?>
<!DOCTYPE svg PUBLIC "-//W3C//DTD SVG 20010904//EN"
 "http://www.w3.org/TR/2001/REC-SVG-20010904/DTD/svg10.dtd">
<svg version="1.0" xmlns="http://www.w3.org/2000/svg"
 width="720.000000pt" height="720.000000pt" viewBox="0 0 720.000000 720.000000"
 preserveAspectRatio="xMidYMid meet">
<metadata>
Created by potrace 1.16, written by Peter Selinger 2001-2019
</metadata>
<g transform="translate(0.000000,720.000000) scale(0.100000,-0.100000)"
fill="#000000" stroke="none">
<path d="M1797 7193 c992 -2 2614 -2 3605 0 992 1 181 2 -1802 2 -1983 0
-2794 -1 -1803 -2z"/>
<path d="M3945 4903 c-11 -3 -31 -13 -45 -23 -17 -11 -33 -14 -50 -9 -14 4
-69 7 -123 8 -95 1 -100 0 -126 -26 -18 -19 -31 -48 -40 -88 -7 -33 -26 -115
-42 -183 -16 -67 -29 -136 -29 -151 0 -38 46 -86 96 -100 55 -15 162 -14 218
3 35 11 55 12 76 4 78 -27 176 58 194 168 6 35 4 46 -17 70 l-25 28 26 41 c34
52 43 156 17 204 -23 45 -76 67 -130 54z m71 -48 c26 -40 13 -118 -28 -169
-25 -31 -35 -57 -44 -111 -7 -38 -11 -72 -9 -73 8 -9 26 12 40 45 20 47 41 32
31 -21 -8 -41 -73 -116 -100 -116 -29 0 -56 20 -56 41 0 19 -3 18 -28 -9 -34
-37 -77 -46 -178 -40 -82 5 -114 24 -114 64 0 13 16 91 35 173 19 82 35 156
35 165 0 36 37 56 103 55 34 0 80 -3 102 -7 36 -6 40 -11 43 -38 2 -22 -5 -40
-23 -62 -25 -30 -28 -31 -50 -16 -14 9 -39 14 -61 12 -39 -3 -38 -1 -58 -82
l-7 -29 49 6 c43 5 51 3 55 -13 10 -38 -15 -64 -71 -73 -44 -7 -55 -13 -63
-34 -5 -13 -7 -29 -3 -34 9 -15 167 -11 190 6 12 8 24 12 27 8 8 -8 14 24 27
152 15 138 25 180 52 205 32 29 83 27 104 -5z"/>
<path d="M464 4550 c-46 -14 -91 -66 -99 -111 -5 -28 -1 -50 16 -86 21 -43 23
-66 27 -243 5 -217 -10 -447 -37 -588 -25 -129 -15 -181 44 -221 29 -20 44
-23 89 -19 120 10 180 101 220 335 14 77 20 92 48 118 l33 29 3 -36 c2 -20 -7
-76 -18 -125 -28 -116 -36 -236 -20 -304 25 -105 138 -181 244 -163 117 19
196 102 196 205 0 22 3 39 8 37 85 -44 113 -52 194 -56 74 -4 98 -1 149 18 79
30 168 111 205 186 15 30 41 64 58 77 17 12 44 37 60 55 l30 34 18 -24 c14
-19 17 -41 16 -118 -1 -124 18 -168 94 -206 45 -23 61 -26 123 -22 45 3 81 11
98 23 27 18 29 18 66 -3 56 -32 136 -30 186 4 l38 25 49 -26 c66 -36 146 -33
207 8 l41 27 42 -27 c59 -39 150 -40 226 -1 l53 26 57 -30 c52 -27 63 -30 130
-25 65 4 79 8 131 44 l57 40 31 -26 c30 -25 31 -27 16 -55 -116 -221 -34 -426
170 -426 37 0 79 5 94 12 43 19 115 69 146 102 47 49 106 160 139 262 41 124
52 130 140 84 83 -44 190 -53 261 -22 45 20 46 20 84 1 71 -36 182 -21 256 35
l36 28 28 -19 c73 -50 103 -58 228 -58 109 0 126 3 188 29 119 50 209 153 240
277 10 39 19 54 32 54 15 0 17 -13 19 -105 2 -122 23 -180 83 -226 51 -39 148
-45 220 -14 28 12 61 32 73 45 l21 23 57 -34 c76 -46 122 -57 217 -52 143 7
256 84 323 219 17 35 50 84 73 109 90 98 113 210 55 269 -22 22 -36 26 -87 27
-56 1 -62 3 -101 42 -23 23 -66 54 -97 70 -50 24 -67 27 -161 27 -125 0 -168
-12 -237 -64 l-51 -40 -22 32 c-37 53 -69 71 -135 75 -62 4 -135 -16 -135 -37
0 -18 -23 -12 -49 13 -39 36 -113 60 -167 53 -55 -6 -93 -31 -114 -75 -18 -38
-20 -38 -48 -11 -44 40 -102 59 -189 59 -96 0 -157 -19 -231 -74 l-49 -36 -24
29 c-37 44 -104 75 -176 79 -77 5 -114 -9 -153 -56 l-29 -36 -21 26 c-60 78
-223 92 -279 24 -10 -12 -19 -10 -69 16 -53 28 -62 29 -132 24 -93 -7 -86 -7
-200 0 -81 5 -104 2 -155 -16 -33 -11 -77 -34 -98 -51 -21 -17 -40 -29 -43
-27 -2 3 5 23 16 46 23 46 26 126 8 169 -32 75 -132 132 -207 118 -116 -22
-177 -110 -160 -233 6 -43 5 -70 -2 -84 -11 -20 -12 -20 -36 11 -54 68 -167
95 -252 59 -31 -12 -40 -12 -90 5 -64 22 -134 18 -179 -9 -27 -15 -31 -15 -68
4 -79 40 -159 37 -218 -9 l-27 -21 -26 26 c-61 61 -142 55 -218 -15 -38 -35
-44 -37 -55 -24 -41 50 -175 91 -216 66 -17 -9 -16 -10 9 -11 39 0 87 -30 94
-58 12 -50 128 -54 160 -6 24 38 48 47 88 34 74 -25 94 -96 54 -199 -39 -105
-46 -201 -14 -201 22 0 75 50 95 91 14 26 23 75 30 161 9 105 14 126 31 141
27 22 73 21 125 -2 49 -22 59 -35 56 -75 l-3 -30 30 41 c57 79 133 103 199 63
17 -11 32 -23 32 -27 0 -5 4 -14 9 -22 7 -11 17 -6 46 22 47 46 92 56 145 32
77 -35 98 -132 64 -303 -9 -45 -14 -85 -11 -88 11 -12 65 26 88 63 36 54 46
86 64 192 9 52 21 103 26 113 25 46 99 42 159 -9 36 -30 39 -69 15 -203 -8
-47 -15 -102 -15 -123 0 -34 3 -38 22 -35 32 4 64 68 71 139 12 111 69 192
167 237 72 34 167 36 225 5 l39 -21 29 22 c34 25 89 26 135 2 51 -26 52 -37
31 -206 -11 -84 -19 -165 -17 -178 3 -24 3 -24 39 11 31 30 37 44 43 96 15
128 66 270 106 291 12 6 34 8 51 5 36 -8 99 -61 99 -83 0 -8 -14 -58 -31 -111
-41 -126 -44 -208 -10 -245 51 -54 128 -21 151 63 6 20 16 101 24 181 8 80 18
153 21 163 20 51 180 27 202 -30 3 -8 -2 -79 -12 -158 -18 -149 -15 -188 13
-183 25 5 62 67 62 103 0 48 37 147 70 187 96 116 268 149 362 70 89 -75 89
-232 2 -314 -39 -36 -92 -57 -165 -65 l-60 -6 28 -18 c70 -47 222 -5 296 82
49 57 76 163 77 301 0 65 16 88 60 88 43 0 74 -15 108 -51 41 -44 99 -45 143
-3 23 22 39 29 69 29 85 0 106 -69 72 -231 -30 -141 -31 -168 -9 -172 12 -2
33 12 58 38 33 34 39 48 39 84 0 95 66 202 154 249 35 19 57 22 146 22 105 0
106 0 155 -35 56 -40 82 -79 99 -147 l12 -46 38 46 c73 89 121 43 57 -54 -17
-24 -48 -62 -70 -84 -23 -21 -41 -46 -41 -55 0 -27 -58 -117 -97 -149 -118
-97 -311 -76 -395 44 l-30 43 -42 -52 c-58 -70 -99 -96 -153 -96 -58 0 -79 12
-103 60 -25 48 -26 143 -5 245 8 38 15 71 15 71 0 1 -16 -2 -35 -6 -53 -12
-121 7 -159 46 -19 19 -19 20 -41 -91 -44 -221 -159 -324 -365 -325 -90 0
-153 25 -214 84 -30 29 -52 44 -54 36 -9 -25 -67 -82 -103 -101 -22 -11 -58
-19 -85 -19 -42 0 -51 4 -84 39 l-38 39 -28 -29 c-36 -38 -85 -53 -149 -46
-74 8 -127 38 -169 98 l-15 22 -33 -32 c-18 -18 -50 -41 -70 -52 -21 -11 -38
-26 -38 -33 0 -8 -12 -49 -26 -92 -72 -215 -178 -334 -300 -334 -94 0 -143 65
-131 171 9 73 52 153 110 204 l48 42 -45 5 c-75 9 -139 49 -189 118 -17 24
-18 24 -30 6 -53 -82 -119 -126 -190 -126 -54 0 -107 33 -120 75 -5 17 -10 35
-12 42 -2 7 -28 -11 -58 -41 -80 -78 -167 -96 -217 -46 -34 34 -40 84 -28 217
9 91 9 126 1 134 -9 9 -16 8 -26 -3 -16 -16 -23 -39 -57 -183 -37 -160 -39
-164 -70 -180 -61 -31 -130 -8 -130 43 0 15 11 77 25 137 27 119 31 180 14
191 -20 12 -38 -21 -85 -156 -53 -156 -58 -166 -92 -202 -37 -40 -91 -39 -126
3 -14 17 -26 43 -26 57 l0 27 -26 -33 c-54 -68 -145 -99 -208 -71 -55 26 -70
124 -41 276 8 43 15 83 15 88 0 6 -24 9 -60 7 -47 -3 -68 1 -95 16 l-34 21
-21 -42 c-27 -54 -46 -77 -100 -116 -31 -22 -51 -47 -66 -83 -44 -105 -134
-168 -249 -176 -90 -6 -159 21 -213 83 -103 117 -96 319 13 429 56 55 115 76
214 76 138 -1 228 -71 256 -200 l7 -34 19 23 c22 27 49 112 49 155 0 17 7 43
14 59 14 25 14 27 -4 17 -10 -5 -24 -25 -31 -44 l-12 -34 -32 24 c-79 60 -246
83 -349 48 -26 -9 -49 -14 -52 -11 -3 2 0 34 6 70 7 36 10 112 8 169 -3 100
-4 105 -36 145 -20 25 -56 53 -90 70 -74 36 -193 40 -257 8 -47 -24 -85 -76
-85 -119 l0 -31 -19 40 c-24 51 -64 89 -124 115 -54 24 -166 34 -213 20z m134
-44 c66 -34 82 -66 82 -163 0 -70 -16 -206 -36 -303 l-7 -35 32 27 c66 56 153
61 206 12 15 -14 30 -22 33 -19 3 3 8 63 10 132 5 140 -8 225 -40 260 -68 74
92 140 196 80 67 -38 79 -63 77 -159 -2 -123 -7 -151 -103 -538 -50 -203 -67
-323 -54 -375 6 -25 10 -27 41 -22 31 5 35 3 35 -17 0 -55 -91 -114 -156 -101
-42 7 -83 41 -100 81 -18 44 -17 153 2 234 47 197 47 253 1 285 -49 34 -155 5
-190 -54 -8 -14 -29 -88 -46 -164 -17 -76 -38 -151 -46 -167 -19 -36 -62 -70
-89 -70 -53 1 -58 27 -32 172 24 138 39 388 34 593 -4 172 -7 194 -27 233 -12
24 -19 51 -16 61 14 46 119 55 193 17z m2787 -237 c31 -27 35 -37 35 -78 0
-63 -30 -100 -87 -108 -103 -14 -161 108 -85 179 50 47 88 49 137 7z"/>
<path d="M3690 3847 c-86 -44 -93 -189 -10 -232 35 -18 96 -19 130 -2 66 33
90 131 48 194 -35 50 -112 68 -168 40z"/>
<path d="M1309 3822 c-25 -23 -32 -38 -36 -78 -3 -27 0 -61 6 -76 25 -65 143
-91 197 -45 27 24 26 47 -2 47 -55 0 -121 89 -112 150 6 39 -12 39 -53 2z"/>
<path d="M6191 3834 c-43 -31 -64 -115 -40 -166 30 -68 141 -91 199 -41 l32
27 -38 13 c-21 7 -51 26 -66 40 -30 28 -53 93 -45 124 6 23 -11 24 -42 3z"/>
<path d="M3799 3387 c-60 -45 -101 -107 -103 -153 0 -21 4 -39 11 -41 20 -7
101 76 127 131 50 107 41 122 -35 63z"/>
<path d="M797 2763 c-4 -3 -7 -51 -7 -105 0 -91 1 -98 20 -98 21 0 28 18 32
88 l3 44 35 -66 c30 -57 38 -66 63 -66 l28 0 -3 103 c-3 97 -4 102 -25 105
-22 3 -23 0 -23 -60 l-1 -63 -35 63 c-27 47 -41 62 -58 62 -13 0 -26 -3 -29
-7z"/>
<path d="M1197 2763 c-4 -3 -7 -51 -7 -105 0 -98 0 -98 25 -98 22 0 25 4 25
39 0 39 1 40 37 43 26 2 39 8 41 20 2 13 -5 17 -35 20 -31 2 -39 7 -41 26 -3
20 1 22 37 22 34 0 41 3 41 20 0 18 -7 20 -58 20 -32 0 -62 -3 -65 -7z"/>
<path d="M1573 2755 c-33 -23 -48 -79 -34 -126 14 -48 44 -69 96 -69 51 0 80
20 95 66 15 46 0 106 -33 129 -28 19 -96 19 -124 0z"/>
<path d="M1950 2665 l0 -105 25 0 c23 0 25 4 25 40 0 33 3 40 20 40 14 0 22
-11 30 -40 9 -33 15 -40 35 -40 30 0 29 -3 9 56 -11 33 -13 49 -5 57 17 17 13
62 -7 80 -13 12 -37 17 -75 17 l-57 0 0 -105z"/>
<path d="M2326 2709 c-11 -113 -8 -149 13 -149 20 0 31 33 31 99 l1 36 13 -40
c8 -22 17 -52 20 -67 4 -19 13 -28 26 -28 15 0 24 15 42 73 l23 72 3 -72 c3
-70 4 -73 27 -73 24 0 25 2 25 68 0 37 -3 84 -7 105 -5 35 -8 38 -36 35 -27
-3 -32 -8 -51 -68 l-20 -65 -20 68 c-19 64 -21 67 -51 67 -32 0 -32 0 -39 -61z"/>
<path d="M2791 2671 c-17 -54 -31 -102 -31 -105 0 -3 11 -6 24 -6 18 0 25 6
28 23 2 17 11 23 36 25 27 3 34 -1 42 -22 7 -19 17 -26 35 -26 21 0 25 4 21
18 -65 200 -59 187 -93 190 l-31 3 -31 -100z"/>
<path d="M3750 2767 c0 -2 4 -17 9 -33 59 -187 52 -174 85 -174 30 0 32 3 61
93 35 111 35 111 8 115 -19 3 -24 -4 -38 -55 -29 -104 -30 -104 -52 -23 -18
68 -22 75 -46 78 -15 2 -27 1 -27 -1z"/>
<path d="M4178 2756 c-10 -7 -18 -18 -18 -25 0 -6 -4 -11 -10 -11 -14 0 -13
-86 2 -113 18 -35 40 -46 89 -47 62 0 91 30 97 103 4 47 1 55 -23 80 -22 22
-37 27 -74 27 -25 0 -54 -7 -63 -14z"/>
<path d="M5090 2665 l0 -105 60 0 c89 0 124 42 83 100 -12 17 -13 25 -5 28 18
6 14 47 -6 65 -13 12 -37 17 -75 17 l-57 0 0 -105z"/>
<path d="M5495 2713 c-9 -32 -23 -78 -31 -102 -8 -25 -14 -46 -14 -48 0 -2 11
-3 25 -3 18 0 26 7 31 25 5 20 12 25 39 25 27 0 34 -4 37 -22 2 -17 11 -24 32
-26 21 -3 27 0 23 10 -3 8 -17 56 -33 106 -27 92 -27 92 -60 92 -32 0 -34 -2
-49 -57z"/>
<path d="M5871 2739 c-26 -25 -31 -38 -31 -77 0 -36 6 -52 27 -74 24 -25 34
-28 90 -28 l63 0 2 33 c4 85 5 82 -31 85 -45 5 -58 -10 -31 -36 26 -24 19 -42
-15 -42 -33 0 -55 26 -55 65 0 46 22 65 76 65 37 0 44 3 44 20 0 18 -7 20 -54
20 -47 0 -58 -4 -85 -31z"/>
<path d="M6247 2763 c-2 -5 -4 -38 -5 -74 -1 -105 33 -144 113 -129 44 8 66
57 63 140 -3 59 -5 65 -25 68 -22 3 -23 0 -23 -72 0 -72 -13 -106 -40 -106
-23 0 -40 47 -40 112 0 61 -2 68 -19 68 -11 0 -22 -3 -24 -7z"/>
<path d="M6640 2665 l0 -105 71 0 c62 0 70 2 67 18 -2 12 -15 18 -46 20 -38 3
-43 6 -40 25 2 18 11 23 41 25 30 3 37 7 35 20 -2 12 -15 18 -41 20 -29 3 -37
7 -37 23 0 16 7 19 40 19 33 0 40 3 40 20 0 18 -7 20 -65 20 l-65 0 0 -105z"/>
<path d="M482 2298 c4 -10 640 -14 3126 -16 2771 -2 3122 0 3122 13 0 13 -353
15 -3126 15 -2496 0 -3125 -3 -3122 -12z"/>
</g>
</svg>
